<?xml version="1.0" encoding="UTF-8"?>
<!DOCTYPE svg PUBLIC "-//W3C//DTD SVG 1.1//EN" "http://www.w3.org/Graphics/SVG/1.1/DTD/svg11.dtd">
<svg xmlns="http://www.w3.org/2000/svg" version="1.1" width="2100px" height="1254px" style="shape-rendering:geometricPrecision; text-rendering:geometricPrecision; image-rendering:optimizeQuality; fill-rule:evenodd; clip-rule:evenodd" xmlns:xlink="http://www.w3.org/1999/xlink">
<g><path style="opacity:1" fill="#000000" d="M 881.5,-0.5 C 885.833,-0.5 890.167,-0.5 894.5,-0.5C 902.982,2.41476 910.648,6.91476 917.5,13C 927.623,14.4205 937.623,16.4205 947.5,19C 953.296,21.3977 958.63,24.5644 963.5,28.5C 970.478,37.3124 977.645,45.9791 985,54.5C 989.857,58.601 994.524,62.9343 999,67.5C 1002.55,71.7192 1006.05,76.0525 1009.5,80.5C 1018.68,89.5161 1028.02,98.3495 1037.5,107C 1047.31,114.139 1055.81,122.639 1063,132.5C 1063.74,136.385 1065.07,140.052 1067,143.5C 1067.49,147.968 1068.49,152.302 1070,156.5C 1072.75,147.408 1075.75,138.408 1079,129.5C 1083,123.5 1087,117.5 1091,111.5C 1116.03,87.6981 1140.53,63.1981 1164.5,38C 1171.81,31.6756 1179.81,26.3422 1188.5,22C 1200.7,19.9105 1212.86,20.0772 1225,22.5C 1232.25,19.1266 1239.41,15.6266 1246.5,12C 1254.49,11.0903 1262.49,10.2569 1270.5,9.5C 1304.38,19.1184 1337.38,30.9517 1369.5,45C 1375.79,48.9772 1382.45,52.1439 1389.5,54.5C 1399.98,54.6439 1410.48,54.6439 1421,54.5C 1441.05,57.0606 1461.21,58.2272 1481.5,58C 1485.47,59.4995 1489.47,59.6661 1493.5,58.5C 1507.5,62.1663 1520.16,68.4996 1531.5,77.5C 1552.53,101.031 1573.03,125.031 1593,149.5C 1627.66,185.831 1662.66,221.831 1698,257.5C 1727.1,290.599 1757.6,322.432 1789.5,353C 1795.45,357.612 1800.78,362.946 1805.5,369C 1816.52,377.114 1826.68,386.28 1836,396.5C 1848.35,411.181 1861.02,425.515 1874,439.5C 1880.05,444.551 1885.71,449.884 1891,455.5C 1904.29,473.121 1917.95,490.454 1932,507.5C 1944.06,520.896 1955.39,534.896 1966,549.5C 1977.84,562.009 1990.34,573.842 2003.5,585C 2010.98,589.24 2018.64,593.24 2026.5,597C 2043.65,600.577 2058.99,607.911 2072.5,619C 2079.76,626.418 2086.43,634.251 2092.5,642.5C 2094.09,646.651 2093.42,650.317 2090.5,653.5C 2085.68,647.205 2080.84,640.872 2076,634.5C 2062.91,619.252 2046.41,610.419 2026.5,608C 2014.83,603.753 2004.16,597.753 1994.5,590C 1989.02,587.87 1984.69,584.204 1981.5,579C 1980.23,578.691 1979.07,578.191 1978,577.5C 1976.67,574.833 1975.33,572.167 1974,569.5C 1970.07,567.249 1966.41,564.583 1963,561.5C 1958.14,553.718 1953.14,546.051 1948,538.5C 1941.38,532.858 1936.05,526.192 1932,518.5C 1929,515.833 1926,513.167 1923,510.5C 1914.14,497.297 1904.14,484.964 1893,473.5C 1889.33,468.5 1885.67,463.5 1882,458.5C 1872.27,448.598 1862.43,438.931 1852.5,429.5C 1843.07,418.841 1833.74,408.007 1824.5,397C 1817.84,392.009 1811.84,386.343 1806.5,380C 1803.25,378.423 1800.25,376.423 1797.5,374C 1774.71,352.177 1752.21,330.01 1730,307.5C 1725.53,302.359 1721.03,297.192 1716.5,292C 1715.5,291.5 1714.5,291 1713.5,290.5C 1710.92,285.752 1707.75,281.419 1704,277.5C 1699.98,274.479 1696.32,271.146 1693,267.5C 1691.56,265.725 1690.56,263.725 1690,261.5C 1685.6,257.424 1680.93,253.757 1676,250.5C 1672.62,247.09 1669.95,243.09 1668,238.5C 1660.08,231.587 1652.42,224.253 1645,216.5C 1635.03,205.192 1625.03,193.859 1615,182.5C 1605.06,173.558 1595.39,164.225 1586,154.5C 1575.77,141.259 1565.1,128.259 1554,115.5C 1550.99,108.502 1546.33,102.835 1540,98.5C 1538.39,94.5565 1535.72,91.5565 1532,89.5C 1529.83,86.6667 1527.67,83.8333 1525.5,81C 1515.35,74.9004 1504.68,70.0671 1493.5,66.5C 1491.73,67.0869 1489.89,67.4202 1488,67.5C 1473.85,66.7459 1459.68,66.2459 1445.5,66C 1430.99,62.8685 1416.32,61.5352 1401.5,62C 1413.38,68.2017 1425.05,74.8684 1436.5,82C 1458.01,90.3928 1480.01,97.3928 1502.5,103C 1509.89,107.112 1517.05,111.612 1524,116.5C 1533.83,131.008 1545.17,144.342 1558,156.5C 1567.68,168.509 1577.68,180.176 1588,191.5C 1589.16,197.685 1587.33,198.852 1582.5,195C 1577.33,188.5 1571.5,182.667 1565,177.5C 1562.94,175.099 1561.27,172.433 1560,169.5C 1551.39,159.89 1542.39,150.556 1533,141.5C 1529.56,134.094 1524.39,128.26 1517.5,124C 1513.51,117.028 1507.51,112.694 1499.5,111C 1494.43,110.296 1489.43,109.296 1484.5,108C 1472.52,103.565 1460.18,99.8986 1447.5,97C 1441.89,94.358 1436.23,92.0247 1430.5,90C 1427.83,85.8257 1424.17,82.8257 1419.5,81C 1410.78,76.268 1401.78,72.4347 1392.5,69.5C 1392.42,68.0695 1392.75,66.7362 1393.5,65.5C 1383.31,60.8294 1372.98,56.6628 1362.5,53C 1355.53,50.1835 1348.87,46.8502 1342.5,43C 1338.71,43.2221 1335.71,41.8887 1333.5,39C 1330.21,38.1184 1326.88,37.4517 1323.5,37C 1321.84,35.1706 1319.84,33.8372 1317.5,33C 1313.06,32.4725 1308.72,31.4725 1304.5,30C 1296.93,27.188 1289.6,23.688 1282.5,19.5C 1281.83,19.8333 1281.17,20.1667 1280.5,20.5C 1275.5,19.1667 1270.5,17.8333 1265.5,16.5C 1261.18,16.992 1257.18,18.3253 1253.5,20.5C 1252.31,20.2444 1251.14,19.9111 1250,19.5C 1246.75,21.5246 1243.25,23.0246 1239.5,24C 1236.67,26.8273 1233.34,28.8273 1229.5,30C 1228.25,31.4579 1228.25,32.9579 1229.5,34.5C 1226,36.839 1222.67,39.339 1219.5,42C 1212.59,49.9168 1205.25,57.5835 1197.5,65C 1186.38,74.4798 1175.04,83.4798 1163.5,92C 1154.55,100.946 1145.55,109.946 1136.5,119C 1124.51,125.986 1114.01,134.819 1105,145.5C 1100.58,152.337 1097.25,159.67 1095,167.5C 1091.34,188.167 1087.17,208.667 1082.5,229C 1085.03,232.026 1087.36,235.193 1089.5,238.5C 1093.27,232.632 1096.77,226.632 1100,220.5C 1106.24,203.076 1113.24,186.076 1121,169.5C 1126.47,161.531 1132.64,154.198 1139.5,147.5C 1148.58,140.299 1158.91,135.799 1170.5,134C 1175.79,131.69 1181.13,129.356 1186.5,127C 1208.11,115.861 1229.44,104.194 1250.5,92C 1259.94,88.1737 1269.61,87.5071 1279.5,90C 1297.95,94.5219 1315.61,100.855 1332.5,109C 1358.74,118.409 1385.07,128.076 1411.5,138C 1417.79,139.823 1424.12,141.489 1430.5,143C 1440.94,144.085 1451.28,145.752 1461.5,148C 1464.55,150.194 1467.89,151.861 1471.5,153C 1491.48,166.96 1512.48,179.294 1534.5,190C 1541.01,196.339 1548.01,202.172 1555.5,207.5C 1557.32,211.055 1556.32,213.389 1552.5,214.5C 1550.83,213.667 1549.17,212.833 1547.5,212C 1540.06,204.55 1532.06,197.883 1523.5,192C 1517.33,189.722 1511.33,187.055 1505.5,184C 1491.08,175.128 1476.42,166.795 1461.5,159C 1452.19,155.928 1442.52,154.594 1432.5,155C 1420.92,151.998 1409.25,148.998 1397.5,146C 1393.12,143.905 1389.12,141.238 1385.5,138C 1377.09,134.862 1368.75,131.529 1360.5,128C 1353.73,127.454 1347.4,125.454 1341.5,122C 1328.61,120.281 1316.61,115.948 1305.5,109C 1292.18,105.103 1278.85,101.27 1265.5,97.5C 1258.05,100.818 1250.38,103.651 1242.5,106C 1235.19,110.636 1227.85,115.302 1220.5,120C 1214.21,120.049 1209.21,122.549 1205.5,127.5C 1200.8,129.368 1196.47,131.868 1192.5,135C 1186.19,136.32 1180.53,138.987 1175.5,143C 1166.49,145.558 1157.82,148.891 1149.5,153C 1145.76,154.738 1142.59,157.238 1140,160.5C 1130.66,172.171 1123.66,185.171 1119,199.5C 1114.41,207.676 1110.08,216.009 1106,224.5C 1107,233.525 1106.67,242.525 1105,251.5C 1102.75,257.016 1100.75,262.683 1099,268.5C 1094.65,269.113 1093.82,270.946 1096.5,274C 1105.06,276.282 1113.4,275.616 1121.5,272C 1127.64,266.866 1133.47,261.366 1139,255.5C 1148.67,239.5 1158.33,223.5 1168,207.5C 1168.45,204.868 1169.28,202.368 1170.5,200C 1169.26,197.285 1169.26,194.618 1170.5,192C 1180.48,192.423 1190.48,192.423 1200.5,192C 1213.6,189.07 1226.6,185.737 1239.5,182C 1243.79,180.604 1247.29,178.104 1250,174.5C 1250.67,166.215 1252,157.881 1254,149.5C 1255.94,148.14 1257.6,148.473 1259,150.5C 1260.2,154.716 1260.87,159.049 1261,163.5C 1261.56,164.022 1262.23,164.355 1263,164.5C 1264.33,163.201 1265.66,161.868 1267,160.5C 1267.1,155.517 1268.77,151.184 1272,147.5C 1272.91,148.328 1273.58,149.328 1274,150.5C 1274.57,154.848 1275.24,159.181 1276,163.5C 1281.83,168 1287.67,172.5 1293.5,177C 1299.24,181.064 1305.24,184.73 1311.5,188C 1335.58,196.096 1360.24,201.763 1385.5,205C 1387.49,206.751 1389.82,207.751 1392.5,208C 1393.33,208.833 1394.17,209.667 1395,210.5C 1394.69,217.863 1396.02,224.863 1399,231.5C 1407.22,247.117 1417.72,260.95 1430.5,273C 1437.22,278.717 1444.22,284.05 1451.5,289C 1468.6,295.368 1485.93,301.368 1503.5,307C 1508.15,307.664 1512.82,308.164 1517.5,308.5C 1521.37,308.38 1525.03,307.88 1528.5,307C 1530.03,309.33 1529.7,311.33 1527.5,313C 1519.69,316.264 1511.69,317.764 1503.5,317.5C 1506.37,334.561 1512.54,350.228 1522,364.5C 1526.42,376.689 1531.42,388.689 1537,400.5C 1551.5,427.602 1565.83,454.935 1580,482.5C 1591.08,496.311 1602.42,509.978 1614,523.5C 1625.33,533.154 1637.49,541.654 1650.5,549C 1666.56,554.709 1682.56,560.375 1698.5,566C 1699.83,568.333 1699.83,570.667 1698.5,573C 1692.88,572.814 1687.21,572.48 1681.5,572C 1674.44,568.704 1667.11,566.038 1659.5,564C 1640.37,553.8 1639.71,555.134 1657.5,568C 1674.08,579.45 1692.42,586.783 1712.5,590C 1715.65,593.891 1714.99,596.724 1710.5,598.5C 1691.15,594.498 1672.82,587.664 1655.5,578C 1652.01,576.376 1649.01,574.042 1646.5,571C 1644.89,570.28 1643.39,570.446 1642,571.5C 1642.24,566.71 1639.74,563.876 1634.5,563C 1629.68,559.089 1624.68,555.422 1619.5,552C 1618.93,550.795 1618.26,549.628 1617.5,548.5C 1613.89,546.064 1610.39,543.398 1607,540.5C 1606.36,537.672 1604.7,535.672 1602,534.5C 1596.98,527.096 1591.98,519.762 1587,512.5C 1581.16,507.837 1576.49,502.17 1573,495.5C 1561,482.508 1551,468.174 1543,452.5C 1538.15,445.464 1533.82,438.131 1530,430.5C 1524.43,419.014 1519.09,407.347 1514,395.5C 1511.67,391.833 1509.33,388.167 1507,384.5C 1500.23,363.022 1494.39,341.356 1489.5,319.5C 1480.01,318.969 1470.68,317.469 1461.5,315C 1428.58,300.591 1405.08,276.757 1391,243.5C 1389.12,236.221 1387.45,228.888 1386,221.5C 1385.53,220.069 1384.7,218.903 1383.5,218C 1371.16,218.447 1358.83,217.781 1346.5,216C 1333.85,212.337 1321.18,208.67 1308.5,205C 1303.12,201.311 1297.45,197.977 1291.5,195C 1283.9,188.901 1277.23,182.068 1271.5,174.5C 1269.04,177.458 1266.38,180.291 1263.5,183C 1260.29,184.153 1256.96,184.82 1253.5,185C 1250.68,187.988 1247.68,190.822 1244.5,193.5C 1238.07,196.093 1231.74,198.927 1225.5,202C 1221.81,201.996 1218.47,202.996 1215.5,205C 1208.82,205.768 1202.15,206.601 1195.5,207.5C 1190.47,206.439 1185.47,205.606 1180.5,205C 1176.94,214.687 1172.44,223.853 1167,232.5C 1162.34,239.796 1157.67,247.129 1153,254.5C 1149.49,257.675 1146.33,261.175 1143.5,265C 1148.55,268.387 1152.55,272.72 1155.5,278C 1165.11,277.363 1173.45,273.696 1180.5,267C 1189.2,261.985 1197.87,256.985 1206.5,252C 1214.56,246.188 1222.39,240.021 1230,233.5C 1230.26,228.137 1230.76,222.803 1231.5,217.5C 1229.96,211.526 1230.62,205.859 1233.5,200.5C 1237.78,200.756 1239.12,202.756 1237.5,206.5C 1238.29,211.781 1238.79,217.115 1239,222.5C 1240.7,214.905 1242.03,207.239 1243,199.5C 1245.4,198.398 1247.9,198.231 1250.5,199C 1249.59,201.447 1248.76,203.947 1248,206.5C 1247.08,217.62 1245.58,228.62 1243.5,239.5C 1243.85,241.697 1244.85,243.53 1246.5,245C 1250.17,248 1253.83,251 1257.5,254C 1270.37,260.937 1283.37,267.604 1296.5,274C 1304.5,276.667 1312.5,279.333 1320.5,282C 1325.94,283.219 1330.78,282.052 1335,278.5C 1341.88,262.903 1345.88,246.569 1347,229.5C 1348.05,228.483 1349.22,228.316 1350.5,229C 1351.98,235.552 1353.98,235.885 1356.5,230C 1359.25,229.151 1361.92,228.484 1364.5,228C 1365.58,229.726 1365.74,231.559 1365,233.5C 1363.67,234.833 1362.33,236.167 1361,237.5C 1355.84,249.319 1351.67,261.486 1348.5,274C 1348.55,286.117 1350.38,297.95 1354,309.5C 1355.56,314.28 1357.89,318.613 1361,322.5C 1368.49,332.15 1375.49,342.15 1382,352.5C 1385.83,355.667 1389.33,359.167 1392.5,363C 1397.01,365.753 1401.34,368.753 1405.5,372C 1410.84,374.758 1416.51,376.758 1422.5,378C 1437.41,380.461 1452.41,382.127 1467.5,383C 1473.9,383.948 1474.57,385.948 1469.5,389C 1453.83,388.79 1438.17,388.123 1422.5,387C 1413.82,385.999 1405.82,383.166 1398.5,378.5C 1398.17,378.833 1397.83,379.167 1397.5,379.5C 1400.88,388.886 1403.04,398.552 1404,408.5C 1405.15,422.386 1405.65,436.219 1405.5,450C 1402.3,478.538 1396.13,506.371 1387,533.5C 1383.87,539.757 1381.54,546.09 1380,552.5C 1384.75,548.35 1390.25,545.517 1396.5,544C 1421.59,528.445 1448.93,519.611 1478.5,517.5C 1496.31,517.973 1513.98,519.806 1531.5,523C 1541.63,525.222 1551.3,528.889 1560.5,534C 1563.34,536.842 1562.84,539.008 1559,540.5C 1550.36,535.711 1541.19,532.211 1531.5,530C 1511.94,528.6 1492.44,527.433 1473,526.5C 1461.24,529.397 1449.41,531.897 1437.5,534C 1436.83,535 1436.17,536 1435.5,537C 1417.95,541.888 1401.28,548.888 1385.5,558C 1382.86,561.817 1379.2,563.484 1374.5,563C 1364.7,578.094 1354.54,592.927 1344,607.5C 1336.53,613.971 1329.03,620.471 1321.5,627C 1316.98,628.852 1312.98,631.518 1309.5,635C 1306.96,636.092 1304.29,636.759 1301.5,637C 1298.21,641.145 1293.88,643.479 1288.5,644C 1285.67,646.248 1282.67,648.248 1279.5,650C 1260.72,655.555 1243.06,663.555 1226.5,674C 1222.5,675.333 1218.5,676.667 1214.5,678C 1204.19,682.965 1193.85,687.965 1183.5,693C 1180.34,696.58 1176.34,698.413 1171.5,698.5C 1156.47,708.017 1141.13,717.017 1125.5,725.5C 1122.36,728.168 1120.2,731.501 1119,735.5C 1115.7,737.795 1112.7,740.462 1110,743.5C 1107.83,747.844 1105.16,751.844 1102,755.5C 1089.66,782.231 1085.32,810.231 1089,839.5C 1091.17,844.515 1095,847.515 1100.5,848.5C 1102.99,847.975 1105.32,847.142 1107.5,846C 1106.12,842.681 1104.45,839.515 1102.5,836.5C 1110.54,819.872 1122.54,807.038 1138.5,798C 1148.69,798.072 1158.69,796.738 1168.5,794C 1175.66,790.253 1182.66,786.253 1189.5,782C 1195.82,781.5 1202.16,781.334 1208.5,781.5C 1207.26,774.743 1205.59,768.076 1203.5,761.5C 1203.34,759.681 1204.01,758.348 1205.5,757.5C 1206.99,759.126 1208.49,760.792 1210,762.5C 1211.6,767.977 1213.6,773.311 1216,778.5C 1218.04,779.423 1220.21,779.756 1222.5,779.5C 1222.81,775.086 1221.98,771.086 1220,767.5C 1221.13,765.789 1222.63,765.289 1224.5,766C 1226.53,768.094 1228.19,770.427 1229.5,773C 1230.94,773.781 1232.28,773.614 1233.5,772.5C 1236.03,766.121 1237.2,759.454 1237,752.5C 1238.7,747.938 1240.7,747.605 1243,751.5C 1243.3,755.529 1243.8,759.529 1244.5,763.5C 1244.32,764.554 1243.99,765.554 1243.5,766.5C 1246.36,767.599 1249.03,767.099 1251.5,765C 1270.47,763.789 1287.47,757.455 1302.5,746C 1322.84,740.235 1343.51,738.902 1364.5,742C 1372.82,744.081 1381.15,746.081 1389.5,748C 1397.5,748.667 1405.5,748.667 1413.5,748C 1421.98,742.253 1430.98,737.253 1440.5,733C 1445.19,732.128 1449.86,731.128 1454.5,730C 1455.83,727.333 1457.83,725.333 1460.5,724C 1476.13,717.853 1492.13,712.853 1508.5,709C 1529.49,705.419 1550.49,702.086 1571.5,699C 1596.22,697.245 1620.89,697.911 1645.5,701C 1663.12,705.207 1680.79,709.207 1698.5,713C 1702.5,714.664 1706.17,716.831 1709.5,719.5C 1712.85,720.515 1716.19,721.515 1719.5,722.5C 1722.62,715.926 1725.46,709.26 1728,702.5C 1731.52,700.484 1733.85,697.484 1735,693.5C 1739.69,688.24 1745.19,684.074 1751.5,681C 1757.92,679.641 1763.92,677.307 1769.5,674C 1778.2,664.969 1787.2,656.303 1796.5,648C 1799.24,646.107 1801.91,646.107 1804.5,648C 1800.94,653.194 1796.44,657.361 1791,660.5C 1786.83,666.028 1782.33,671.195 1777.5,676C 1774.4,677.439 1771.56,679.273 1769,681.5C 1768.38,682.449 1768.55,683.282 1769.5,684C 1756.79,685.262 1746.63,690.762 1739,700.5C 1734.56,708.62 1730.39,716.953 1726.5,725.5C 1728.19,727.359 1729.69,729.359 1731,731.5C 1734.96,713.832 1745.13,700.666 1761.5,692C 1771.74,688.048 1782.07,684.381 1792.5,681C 1798.83,676 1804.5,670.333 1809.5,664C 1810.79,663.51 1812.13,663.343 1813.5,663.5C 1814.61,665.695 1814.44,667.695 1813,669.5C 1810.16,672.518 1807.83,675.851 1806,679.5C 1793.21,687.986 1779.38,694.152 1764.5,698C 1761.17,700 1757.83,702 1754.5,704C 1752.14,706.605 1749.64,709.105 1747,711.5C 1742.25,717.556 1738.41,724.056 1735.5,731C 1737.5,731.667 1738.83,733 1739.5,735C 1741.83,736 1744.17,737 1746.5,738C 1755.21,746.712 1762.38,756.546 1768,767.5C 1773.17,772.335 1777.17,778.001 1780,784.5C 1784.71,789.041 1789.21,793.708 1793.5,798.5C 1796.83,805.166 1800.66,811.499 1805,817.5C 1811.58,824.758 1818.25,832.092 1825,839.5C 1827.67,842.889 1830.34,846.223 1833,849.5C 1833.52,853.692 1835.86,856.359 1840,857.5C 1846.27,867.697 1853.27,877.364 1861,886.5C 1861.97,888.392 1862.64,890.392 1863,892.5C 1864.33,893.167 1865.67,893.833 1867,894.5C 1873.87,904.712 1881.53,914.378 1890,923.5C 1896.95,933.451 1904.28,943.117 1912,952.5C 1917.78,963.094 1924.28,973.094 1931.5,982.5C 1950.72,1004.62 1969.22,1027.28 1987,1050.5C 1995.33,1059.22 2002.66,1068.55 2009,1078.5C 2011.63,1080.13 2013.96,1082.13 2016,1084.5C 2016.72,1086.11 2016.55,1087.61 2015.5,1089C 2010.83,1089.67 2006.17,1089.67 2001.5,1089C 1996.86,1085.04 1993.03,1080.54 1990,1075.5C 1986.91,1074.08 1984.91,1071.74 1984,1068.5C 1974.94,1058.68 1966.6,1048.34 1959,1037.5C 1951.13,1030.08 1944.47,1021.75 1939,1012.5C 1933.89,1008.39 1929.89,1003.39 1927,997.5C 1922.26,992.758 1918.26,987.425 1915,981.5C 1908.01,973.534 1902.01,964.867 1897,955.5C 1887.22,945.388 1878.56,934.388 1871,922.5C 1868.37,920.874 1866.04,918.874 1864,916.5C 1855.67,905.167 1847.33,893.833 1839,882.5C 1837.54,877.905 1834.88,874.239 1831,871.5C 1827.12,863.631 1822.46,856.298 1817,849.5C 1812.71,845.175 1808.38,840.842 1804,836.5C 1802.41,834.33 1801.08,831.996 1800,829.5C 1789.33,817.432 1779.66,804.766 1771,791.5C 1770.77,787.704 1768.77,785.371 1765,784.5C 1758.75,771.252 1749.91,760.085 1738.5,751C 1735.5,746.667 1731.83,743 1727.5,740C 1726.17,739.667 1724.83,739.333 1723.5,739C 1722.83,737.667 1721.83,736.667 1720.5,736C 1711.45,733.598 1702.78,730.265 1694.5,726C 1687.12,724.541 1679.79,722.874 1672.5,721C 1666.8,717.648 1660.8,715.148 1654.5,713.5C 1653.06,714.063 1651.56,714.397 1650,714.5C 1625.77,710.581 1601.6,710.748 1577.5,715C 1552.99,716.264 1528.66,718.93 1504.5,723C 1489.16,729.449 1473.49,735.116 1457.5,740C 1445.55,747.193 1433.55,754.193 1421.5,761C 1413.18,762.05 1404.85,762.384 1396.5,762C 1376.13,758.232 1355.63,755.399 1335,753.5C 1328.1,753.734 1321.26,754.567 1314.5,756C 1305.27,761.909 1295.6,766.909 1285.5,771C 1276.18,772.659 1266.84,774.325 1257.5,776C 1253.27,778.302 1249.27,780.969 1245.5,784C 1240.8,783.516 1237.14,785.183 1234.5,789C 1232.19,788.845 1229.86,788.845 1227.5,789C 1224.34,794.528 1219.67,796.861 1213.5,796C 1202.71,789.199 1193.71,791.199 1186.5,802C 1182.89,803.944 1179.56,806.277 1176.5,809C 1170.83,810 1165.17,811 1159.5,812C 1156.27,815.66 1153.77,819.827 1152,824.5C 1145.57,832.934 1138.74,841.101 1131.5,849C 1123.78,853.527 1115.78,857.527 1107.5,861C 1104.48,861.664 1101.65,861.164 1099,859.5C 1097.71,859.95 1096.55,860.617 1095.5,861.5C 1092.46,859.824 1090.12,857.491 1088.5,854.5C 1086.92,853.702 1085.26,853.202 1083.5,853C 1085.06,850.524 1084.4,849.024 1081.5,848.5C 1065.74,858.94 1049.74,859.107 1033.5,849C 1027.67,843.167 1021.83,837.333 1016,831.5C 1009.37,823.733 1003.87,815.233 999.5,806C 993.777,803.483 988.11,800.817 982.5,798C 984.312,796.373 984.479,794.873 983,793.5C 977.601,795.423 972.767,794.59 968.5,791C 966.5,790.667 964.5,790.333 962.5,790C 960.731,786.743 958.231,785.91 955,787.5C 951.872,786.796 948.706,786.296 945.5,786C 944.122,784.287 942.455,782.953 940.5,782C 935.979,781.271 931.646,779.937 927.5,778C 924.167,777.667 920.833,777.333 917.5,777C 902.02,769.289 887.353,760.289 873.5,750C 868.909,748.136 864.243,746.47 859.5,745C 852.095,744.606 844.762,743.772 837.5,742.5C 819.751,744.941 801.751,747.274 783.5,749.5C 778.857,748.488 774.19,748.488 769.5,749.5C 754.188,749.072 739.188,746.239 724.5,741C 714.5,735 704.5,729 694.5,723C 684.593,718.029 674.26,714.029 663.5,711C 653.189,710.24 643.022,708.74 633,706.5C 630.611,706.963 628.277,707.63 626,708.5C 622,707.167 618,705.833 614,704.5C 608.094,707.12 602.261,706.953 596.5,704C 579.316,703.915 562.482,701.748 546,697.5C 543.085,699.274 540.585,698.774 538.5,696C 528.28,694.592 518.613,691.592 509.5,687C 499.763,683.712 489.763,681.546 479.5,680.5C 471.554,683.806 463.888,687.639 456.5,692C 449.288,699.195 440.954,704.861 431.5,709C 416.368,726.47 399.702,742.137 381.5,756C 363.961,775.539 345.128,793.706 325,810.5C 322.752,813.328 320.752,816.328 319,819.5C 302.938,835.897 287.938,853.23 274,871.5C 259.428,885.057 246.761,900.057 236,916.5C 219.118,939.639 201.785,962.306 184,984.5C 160.571,1019.37 139.237,1055.37 120,1092.5C 113.407,1100.02 108.073,1108.35 104,1117.5C 93.4073,1130.37 84.074,1144.03 76,1158.5C 64.6063,1173.88 53.273,1189.21 42,1204.5C 41.5291,1206.25 40.8624,1207.91 40,1209.5C 35.0279,1212.12 32.0279,1216.12 31,1221.5C 29.0797,1224.34 27.4131,1227.34 26,1230.5C 23.3723,1232.13 21.039,1234.13 19,1236.5C 14.6157,1242.04 10.449,1247.71 6.5,1253.5C 5.5,1253.5 4.5,1253.5 3.5,1253.5C 3.21719,1252.71 2.71719,1252.04 2,1251.5C 1.07608,1244.39 1.40942,1237.39 3,1230.5C 14.9732,1216.55 25.9732,1201.88 36,1186.5C 37,1185.83 38,1185.17 39,1184.5C 43.8372,1176.16 49.1705,1168.16 55,1160.5C 59.0122,1152.47 64.0122,1145.14 70,1138.5C 77.0705,1126.7 84.4039,1115.03 92,1103.5C 93,1102.83 94,1102.17 95,1101.5C 98.4045,1095.75 101.405,1089.75 104,1083.5C 113.807,1070.14 122.141,1055.81 129,1040.5C 137.24,1028.28 144.573,1015.62 151,1002.5C 158.821,992.015 165.821,981.015 172,969.5C 181.575,956.256 192.242,943.922 204,932.5C 214.729,918.452 225.396,904.452 236,890.5C 239.566,883.933 244.233,878.266 250,873.5C 251.667,870.833 253.333,868.167 255,865.5C 282.599,838.099 308.265,809.432 332,779.5C 368.356,742.219 407.523,708.052 449.5,677C 455.955,673.294 462.789,670.794 470,669.5C 470.158,660.817 466.825,653.817 460,648.5C 459.175,644.664 460.675,643.164 464.5,644C 469.305,647.423 472.805,651.923 475,657.5C 476.173,661.531 477.34,665.531 478.5,669.5C 482.824,669.927 487.158,670.261 491.5,670.5C 490.394,660.778 488.894,651.111 487,641.5C 483.62,635.236 480.12,629.069 476.5,623C 476.645,622.228 476.978,621.561 477.5,621C 479.167,620.333 480.833,620.333 482.5,621C 489.442,627.379 493.942,635.212 496,644.5C 497.513,653.606 499.346,662.606 501.5,671.5C 517.629,677.866 534.296,682.366 551.5,685C 553.558,686.49 554.891,688.49 555.5,691C 564.081,692.858 572.747,693.525 581.5,693C 582.645,691.141 584.312,690.307 586.5,690.5C 593.741,691.033 600.908,692.033 608,693.5C 614.844,691.547 620.844,692.88 626,697.5C 627.563,696.898 627.396,696.065 625.5,695C 631.054,693.222 636.721,693.222 642.5,695C 643.167,695.667 643.833,696.333 644.5,697C 641.879,700.288 642.879,702.121 647.5,702.5C 649.373,702.518 649.706,702.018 648.5,701C 649.167,700 649.833,699 650.5,698C 654.406,696.566 658.406,696.233 662.5,697C 669.149,698.653 675.816,700.32 682.5,702C 684.158,703.624 685.825,705.291 687.5,707C 696.545,708.563 704.545,712.229 711.5,718C 714.944,718.111 717.277,719.777 718.5,723C 728.711,726.914 739.044,730.58 749.5,734C 761.833,734.667 774.167,734.667 786.5,734C 808.003,729.401 829.67,728.401 851.5,731C 856.323,731.83 860.989,733.164 865.5,735C 872.374,738.937 879.374,742.603 886.5,746C 901.349,759.924 918.682,768.757 938.5,772.5C 938.62,768.958 938.286,765.458 937.5,762C 937.6,759.63 938.6,757.797 940.5,756.5C 943.094,757.592 945.261,759.259 947,761.5C 947.482,765.142 948.148,768.809 949,772.5C 951.216,775.606 954.216,777.273 958,777.5C 958.498,775.473 958.331,773.473 957.5,771.5C 958.582,767.207 960.749,766.54 964,769.5C 964.311,771.556 964.811,773.556 965.5,775.5C 967.341,776.23 969.175,776.897 971,777.5C 970.5,781.82 972.333,784.154 976.5,784.5C 976.429,781.689 975.762,779.022 974.5,776.5C 976.674,770.326 979.507,769.993 983,775.5C 983.405,779.213 983.405,782.879 983,786.5C 985.027,786.986 987.193,786.986 989.5,786.5C 989.469,790.597 991.469,793.097 995.5,794C 1003,792.778 1010.66,792.444 1018.5,793C 1024.06,794.67 1026.39,798.17 1025.5,803.5C 1028.26,802.02 1030.92,802.187 1033.5,804C 1036.03,808.074 1039.03,811.74 1042.5,815C 1048.18,818.464 1053.35,822.631 1058,827.5C 1058.39,830.188 1058.89,832.855 1059.5,835.5C 1058.67,838.479 1058,841.479 1057.5,844.5C 1060.75,844.619 1064.08,844.785 1067.5,845C 1071.3,842.203 1074.8,839.036 1078,835.5C 1079.36,816.356 1078.36,797.356 1075,778.5C 1067.33,765.173 1058.67,752.506 1049,740.5C 1044.5,737.333 1040.67,733.5 1037.5,729C 1032.43,727.806 1028.43,725.139 1025.5,721C 1018.56,717.702 1011.89,714.035 1005.5,710C 1000.21,709.82 996.041,707.653 993,703.5C 992.693,699.953 991.86,696.62 990.5,693.5C 994.553,694.017 998.387,695.35 1002,697.5C 1004.29,696.399 1005.79,697.232 1006.5,700C 1020.61,705.884 1033.61,713.551 1045.5,723C 1046.86,724.584 1047.53,726.418 1047.5,728.5C 1051.59,727.705 1054.76,729.038 1057,732.5C 1062.67,740.167 1068.33,747.833 1074,755.5C 1077.4,761.692 1080.9,767.692 1084.5,773.5C 1089.07,761.7 1094.73,750.366 1101.5,739.5C 1104.27,736.804 1106.94,733.971 1109.5,731C 1111.46,730.069 1113.46,729.236 1115.5,728.5C 1117.83,722.283 1122.16,717.783 1128.5,715C 1129.17,714 1129.83,713 1130.5,712C 1143.22,705.73 1155.55,698.73 1167.5,691C 1183.08,685.378 1198.08,678.378 1212.5,670C 1236.75,659.39 1260.75,648.39 1284.5,637C 1288.32,633.92 1292.65,631.587 1297.5,630C 1315.86,619.301 1331.36,605.468 1344,588.5C 1359.65,563.193 1372.65,536.527 1383,508.5C 1390.54,482.671 1395.37,456.338 1397.5,429.5C 1397.32,412.345 1394.49,395.678 1389,379.5C 1385.31,373.44 1381.14,367.773 1376.5,362.5C 1369.75,349.248 1361.25,337.248 1351,326.5C 1349.89,322.056 1347.89,318.056 1345,314.5C 1342.42,306.113 1341.25,297.613 1341.5,289C 1341.39,287.72 1340.72,286.887 1339.5,286.5C 1334.94,290.377 1329.78,292.044 1324,291.5C 1316.84,290.893 1310.01,289.06 1303.5,286C 1298.03,283.285 1292.36,280.951 1286.5,279C 1277.27,273.219 1267.61,268.219 1257.5,264C 1253.43,260.937 1249.1,258.27 1244.5,256C 1241.22,249.885 1236.55,245.385 1230.5,242.5C 1228.55,244.622 1226.22,246.122 1223.5,247C 1218.7,251.498 1214.2,256.331 1210,261.5C 1209.67,261.167 1209.33,260.833 1209,260.5C 1205.43,263.699 1201.6,266.533 1197.5,269C 1192.95,270.558 1188.62,272.558 1184.5,275C 1175.6,282.804 1165.27,287.637 1153.5,289.5C 1152.65,297.205 1150.49,304.539 1147,311.5C 1141.76,320.416 1136.09,329.083 1130,337.5C 1126.45,341.93 1122.45,345.93 1118,349.5C 1117.52,350.448 1117.35,351.448 1117.5,352.5C 1112.11,354.689 1106.77,357.189 1101.5,360C 1093.83,360.667 1086.17,360.667 1078.5,360C 1074.99,359.169 1071.82,357.669 1069,355.5C 1067.91,352.956 1067.24,350.289 1067,347.5C 1061.18,357.557 1052.68,360.391 1041.5,356C 1030.26,353.543 1020.26,348.71 1011.5,341.5C 1009.3,336.419 1006.13,332.085 1002,328.5C 998.019,321.209 994.019,313.876 990,306.5C 984.73,295.838 982.23,284.505 982.5,272.5C 969.898,270.74 957.231,269.573 944.5,269C 940.656,267.414 936.656,266.414 932.5,266C 925.379,262.939 918.379,259.606 911.5,256C 909.539,253.037 907.206,250.371 904.5,248C 899.289,247.947 894.122,247.114 889,245.5C 887.775,245.862 886.609,246.362 885.5,247C 883.833,250 881.5,252.333 878.5,254C 871.864,257.318 865.198,260.651 858.5,264C 843.883,275.371 827.216,281.204 808.5,281.5C 804.647,280.498 801.147,278.831 798,276.5C 797.308,277.025 796.808,277.692 796.5,278.5C 797.779,284.509 797.612,290.509 796,296.5C 794.182,300.77 792.515,305.103 791,309.5C 784.333,320.167 777.667,330.833 771,341.5C 766.311,347.187 761.311,352.521 756,357.5C 754.66,361.51 753.327,365.51 752,369.5C 751.776,376.416 750.943,383.249 749.5,390C 751.053,395.128 750.72,400.128 748.5,405C 748.507,422.13 749.007,439.297 750,456.5C 753.13,472.075 755.797,487.741 758,503.5C 768.188,549.636 792.021,586.803 829.5,615C 861.001,633.922 893.334,651.589 926.5,668C 937.884,671.568 948.884,675.901 959.5,681C 965.938,680.121 970.438,682.621 973,688.5C 975.79,685.92 978.624,685.92 981.5,688.5C 982.545,692.286 984.545,695.453 987.5,698C 986.372,700.065 984.706,700.732 982.5,700C 981.881,698.243 980.714,697.076 979,696.5C 976.901,697.287 974.734,697.62 972.5,697.5C 972.66,695.801 972.494,694.134 972,692.5C 970.263,694.625 968.096,695.458 965.5,695C 947.046,685.603 928.046,677.603 908.5,671C 907.5,670 906.5,669 905.5,668C 884.967,657.568 864.634,646.902 844.5,636C 826.927,625.441 810.761,612.941 796,598.5C 785.563,586.064 775.896,573.064 767,559.5C 756.606,547.679 745.106,536.845 732.5,527C 722.167,520.667 711.833,514.333 701.5,508C 692.184,503.513 682.517,499.846 672.5,497C 659.848,495.283 647.182,493.616 634.5,492C 620.353,491.497 606.52,493.33 593,497.5C 588.927,496.669 587.427,494.336 588.5,490.5C 590.766,491.557 592.766,491.057 594.5,489C 605.121,486.511 615.787,484.344 626.5,482.5C 642.939,483.753 659.272,485.919 675.5,489C 706.88,498.446 734.047,514.946 757,538.5C 747.502,504.656 741.169,469.989 738,434.5C 737.623,413.021 739.123,391.688 742.5,370.5C 737.607,372.689 732.44,374.355 727,375.5C 723.196,374.814 719.363,375.148 715.5,376.5C 698.7,369.9 681.366,367.733 663.5,370C 660.128,371.606 656.628,372.772 653,373.5C 648.269,373.621 647.436,371.954 650.5,368.5C 660.539,364.516 671.039,362.183 682,361.5C 694.676,362.868 707.176,365.202 719.5,368.5C 727.718,367.705 735.385,365.205 742.5,361C 750.367,353.132 758.533,345.632 767,338.5C 767.333,335.833 767.667,333.167 768,330.5C 771.667,328.167 774.667,325.167 777,321.5C 781.52,313.124 785.52,304.457 789,295.5C 791.701,285.045 790.534,275.045 785.5,265.5C 778.313,255.796 772.146,245.463 767,234.5C 765.75,225.58 768.417,224.247 775,230.5C 780.976,242.945 788.809,254.112 798.5,264C 802.167,265.667 805.833,267.333 809.5,269C 816.955,269.768 824.289,269.101 831.5,267C 837.216,265.154 842.883,263.154 848.5,261C 857.213,255.31 866.546,250.643 876.5,247C 879,245.167 881.167,243 883,240.5C 878.721,230.896 875.054,220.896 872,210.5C 871.783,205.447 871.283,200.447 870.5,195.5C 871.421,193.244 873.088,192.244 875.5,192.5C 876.642,203.851 879.642,214.684 884.5,225C 884.043,225.414 883.709,225.914 883.5,226.5C 886.339,229.823 888.506,233.49 890,237.5C 891.987,238.218 893.821,239.218 895.5,240.5C 896.881,240 897.547,239 897.5,237.5C 894.148,223.397 892.981,209.063 894,194.5C 895.298,193.44 896.465,192.274 897.5,191C 891.712,187.046 886.378,182.546 881.5,177.5C 877.395,179.92 874.062,183.253 871.5,187.5C 859.99,193.222 848.657,199.055 837.5,205C 822.339,208.945 807.339,213.278 792.5,218C 780.483,219.49 768.483,220.157 756.5,220C 751.881,225.292 748.047,231.125 745,237.5C 730.994,251.157 715.494,262.99 698.5,273C 688.535,276.327 678.535,279.661 668.5,283C 664.594,292.741 662.761,302.908 663,313.5C 658.328,335.513 651.661,356.847 643,377.5C 627.127,408.248 609.46,437.915 590,466.5C 586.104,469.378 583.437,473.045 582,477.5C 576.455,481.378 571.955,486.211 568.5,492C 565.033,493.672 562.7,496.172 561.5,499.5C 557.873,499.621 555.54,501.455 554.5,505C 547.254,509.576 540.587,514.909 534.5,521C 523.652,528.674 512.652,536.174 501.5,543.5C 499.003,543.065 497.837,541.731 498,539.5C 514.15,524.354 530.65,509.52 547.5,495C 552.776,489.051 558.109,483.051 563.5,477C 562.5,476.333 561.5,476.333 560.5,477C 548.279,490.422 534.279,501.422 518.5,510C 512.103,515.733 504.77,519.733 496.5,522C 494.343,524.322 492.01,526.489 489.5,528.5C 487.054,527.573 486.221,525.906 487,523.5C 489.239,520.038 492.406,518.705 496.5,519.5C 496.33,518.178 496.663,517.011 497.5,516C 509.996,508.442 521.996,500.442 533.5,492C 547.228,479.123 561.561,467.123 576.5,456C 585.105,447.73 592.605,438.563 599,428.5C 614.701,401.755 628.701,374.088 641,345.5C 646.899,325.934 650.732,305.934 652.5,285.5C 641.556,286.982 630.722,286.315 620,283.5C 616.435,284.193 612.935,283.693 609.5,282C 608.424,280.274 608.257,278.441 609,276.5C 623.831,275.259 638.664,273.759 653.5,272C 668.814,267.091 683.814,261.425 698.5,255C 711.167,250.089 722,242.589 731,232.5C 734.5,227.667 738,222.833 741.5,218C 733.241,215.211 724.908,212.544 716.5,210C 714.792,208.49 713.126,206.99 711.5,205.5C 712.106,203.291 712.773,201.124 713.5,199C 717.039,197.496 720.705,197.163 724.5,198C 726.49,199.751 728.823,200.751 731.5,201C 751.7,204.288 772.033,205.288 792.5,204C 808.338,200.115 823.671,195.115 838.5,189C 846.167,184.667 853.833,180.333 861.5,176C 866.025,172.137 870.525,168.304 875,164.5C 873.694,158.953 872.194,153.287 870.5,147.5C 871.349,142.274 873.849,141.274 878,144.5C 879.18,148.217 880.513,151.884 882,155.5C 883.045,150.685 885.045,146.352 888,142.5C 888.333,142.833 888.667,143.167 889,143.5C 890.224,148.386 890.891,153.386 891,158.5C 893.11,161.89 894.777,165.557 896,169.5C 900.263,175.765 905.763,180.598 912.5,184C 933.475,191.452 954.975,196.619 977,199.5C 977.66,202.047 977.493,204.547 976.5,207C 981.596,223.621 987.096,240.121 993,256.5C 1001.8,264.789 1002.46,273.456 995,282.5C 993.802,286.809 994.802,290.476 998,293.5C 998.626,295.713 998.459,297.88 997.5,300C 998.918,303.001 999.751,306.168 1000,309.5C 1008.45,320.158 1017.28,330.658 1026.5,341C 1028.17,342 1029.83,343 1031.5,344C 1039.28,346.404 1047.12,348.571 1055,350.5C 1056.21,349.929 1057.37,349.262 1058.5,348.5C 1059.56,345.382 1060.89,342.382 1062.5,339.5C 1058.12,339.057 1054.28,337.39 1051,334.5C 1049.39,331.228 1047.39,328.228 1045,325.5C 1044.27,321.96 1043.1,318.627 1041.5,315.5C 1035.03,310.859 1028.2,306.859 1021,303.5C 1019.21,300.048 1017.04,296.882 1014.5,294C 1015.71,290.793 1018.04,289.126 1021.5,289C 1017.82,287.176 1013.98,287.009 1010,288.5C 1006.4,285.606 1004.73,281.939 1005,277.5C 1005.42,276.328 1006.09,275.328 1007,274.5C 1014.36,277.38 1021.86,279.713 1029.5,281.5C 1032.79,281.705 1035.79,280.872 1038.5,279C 1039.38,277.644 1039.71,276.144 1039.5,274.5C 1035.49,274.666 1031.49,274.499 1027.5,274C 1022.7,263.421 1019.7,252.421 1018.5,241C 1018.34,238.53 1019.01,236.364 1020.5,234.5C 1020.07,233.707 1019.74,232.873 1019.5,232C 1021.41,228.42 1023.74,225.253 1026.5,222.5C 1022.47,210.116 1017.64,198.116 1012,186.5C 1010.68,183.594 1010.35,180.594 1011,177.5C 1015.91,176.053 1018.24,178.053 1018,183.5C 1021.19,188.554 1023.86,193.888 1026,199.5C 1034.36,223.409 1041.19,247.742 1046.5,272.5C 1045.79,276.804 1045.29,281.137 1045,285.5C 1042.36,288.029 1039.19,289.029 1035.5,288.5C 1035.5,289.5 1035.5,290.5 1035.5,291.5C 1042.38,293.401 1049.38,294.235 1056.5,294C 1059.99,292.966 1063.32,291.633 1066.5,290C 1067.22,288.013 1068.22,286.179 1069.5,284.5C 1067.53,283.422 1065.69,283.755 1064,285.5C 1061.9,284.385 1059.73,284.385 1057.5,285.5C 1055.23,285.069 1053.73,283.736 1053,281.5C 1051.49,271.473 1049.99,261.473 1048.5,251.5C 1048.88,244.118 1049.71,236.785 1051,229.5C 1052.24,228.601 1053.07,227.434 1053.5,226C 1049.28,209.794 1047.45,193.294 1048,176.5C 1047.09,175.672 1046.42,174.672 1046,173.5C 1045.36,159.736 1040.53,147.736 1031.5,137.5C 1027.01,134.844 1023.34,131.344 1020.5,127C 1023.17,123.008 1026.5,122.508 1030.5,125.5C 1033.79,129.292 1037.29,132.958 1041,136.5C 1043.59,140.674 1045.92,145.007 1048,149.5C 1053.52,168.073 1056.52,187.073 1057,206.5C 1060.25,221.589 1063.92,236.589 1068,251.5C 1068.47,253.779 1069.47,255.779 1071,257.5C 1069.49,225.242 1066.49,192.909 1062,160.5C 1060.15,152.767 1058.15,145.1 1056,137.5C 1054,134.167 1052,130.833 1050,127.5C 1036.84,117.944 1024.51,107.278 1013,95.5C 1010.67,92.1667 1008.33,88.8333 1006,85.5C 988.043,69.2131 971.876,51.3798 957.5,32C 948.025,26.3387 937.858,22.8387 927,21.5C 926.308,22.0253 925.808,22.6919 925.5,23.5C 929.658,27.7912 933.824,32.1246 938,36.5C 941.445,46.6122 948.279,53.4455 958.5,57C 971.331,70.8312 984.498,84.3312 998,97.5C 998.718,103.606 996.218,105.106 990.5,102C 984.422,94.5859 977.422,88.2526 969.5,83C 967.072,78.7367 964.072,74.9034 960.5,71.5C 953.947,65.9611 947.447,60.2945 941,54.5C 940.333,53.1667 939.667,51.8333 939,50.5C 934.211,45.2207 929.211,40.2207 924,35.5C 920.691,29.6908 916.191,25.0241 910.5,21.5C 909.833,20.1667 909.167,18.8333 908.5,17.5C 904.345,14.5342 900.012,11.7008 895.5,9C 890.254,7.49414 884.921,7.1608 879.5,8C 865.113,11.8575 851.113,16.8575 837.5,23C 833.432,22.7072 830.098,24.0405 827.5,27C 821.574,27.0289 816.907,29.3622 813.5,34C 810.475,34.1545 808.809,35.6545 808.5,38.5C 801.068,40.5465 794.068,43.7131 787.5,48C 785.423,48.1922 783.423,48.6922 781.5,49.5C 774.312,52.8527 767.312,56.6861 760.5,61C 753.071,62.3825 746.404,65.3825 740.5,70C 733.178,71.91 726.178,74.5766 719.5,78C 708.714,79.9462 698.381,83.2795 688.5,88C 678.453,90.3487 668.786,93.682 659.5,98C 641.306,99.9523 625.806,107.452 613,120.5C 610.404,124.03 608.071,127.697 606,131.5C 598.983,137.252 592.649,143.586 587,150.5C 585.302,149.471 584.468,147.971 584.5,146C 585.987,142.214 587.487,138.381 589,134.5C 596.108,126.05 603.274,117.55 610.5,109C 616.505,104.011 622.838,99.3441 629.5,95C 640.473,90.4537 651.806,87.1203 663.5,85C 686.145,77.3369 708.812,69.6702 731.5,62C 742.833,57.3333 754.167,52.6667 765.5,48C 768.592,47.0662 768.925,45.8996 766.5,44.5C 761.157,46.1736 755.824,47.8403 750.5,49.5C 747.203,48.5041 743.869,48.3374 740.5,49C 734.908,52.1659 729.242,52.6659 723.5,50.5C 714.945,54.5993 705.945,55.9327 696.5,54.5C 686.058,57.4732 675.391,59.3066 664.5,60C 658.722,61.5913 653.055,63.4246 647.5,65.5C 640.319,64.7051 633.152,64.3717 626,64.5C 622.057,66.7588 617.891,68.5922 613.5,70C 609.311,75.1867 604.811,80.02 600,84.5C 595.875,89.3014 592.542,94.6347 590,100.5C 582.33,107.837 574.996,115.504 568,123.5C 559.741,131.363 551.241,138.863 542.5,146C 538.686,150.649 534.686,155.149 530.5,159.5C 518.176,170.483 505.51,181.15 492.5,191.5C 481.776,202.228 470.776,212.561 459.5,222.5C 457.808,226.06 455.142,228.56 451.5,230C 447.682,235.48 443.516,240.647 439,245.5C 424.694,259.806 410.36,274.14 396,288.5C 393.333,292.5 390.667,296.5 388,300.5C 385,300.833 383.333,302.5 383,305.5C 350.436,336.067 319.102,368.067 289,401.5C 268.968,420.366 249.468,439.699 230.5,459.5C 221.691,466.124 212.691,472.624 203.5,479C 180.766,490.859 157.433,501.526 133.5,511C 128.129,513.697 123.296,517.197 119,521.5C 114.385,528.45 109.385,535.116 104,541.5C 99.3734,550.719 94.3734,559.719 89,568.5C 82.5536,582.719 74.5536,596.053 65,608.5C 56.6237,622.86 48.2903,637.193 40,651.5C 37.9146,653.082 36.4146,655.082 35.5,657.5C 33.9288,659.415 31.9288,660.415 29.5,660.5C 29.3515,666.76 26.5181,671.427 21,674.5C 19.1335,676.808 18.1335,679.475 18,682.5C 15.2721,685.473 12.4387,688.306 9.5,691C 8.55085,691.617 7.71752,691.451 7,690.5C 6.83333,689.333 6.66667,688.167 6.5,687C 7.25088,684.581 7.25088,682.247 6.5,680C 7.1371,677.755 7.97044,675.588 9,673.5C 20.2303,664.037 28.2303,652.37 33,638.5C 37.4853,633.351 41.152,627.684 44,621.5C 51.5748,613.342 57.9081,604.342 63,594.5C 65.3333,592.167 67.6667,589.833 70,587.5C 71.1058,579.407 74.4391,572.407 80,566.5C 90.541,539.907 107.374,517.74 130.5,500C 140.147,495.703 149.814,491.369 159.5,487C 169.165,485.168 177.832,481.168 185.5,475C 206.167,465.994 223.667,452.827 238,435.5C 254.131,418.47 270.797,402.137 288,386.5C 289,384.833 290,383.167 291,381.5C 302.08,371.249 312.914,360.916 323.5,350.5C 336.146,336.358 349.979,323.358 365,311.5C 380.529,293.711 396.029,276.045 411.5,258.5C 428.441,243.644 444.108,227.811 458.5,211C 466.086,204.418 473.419,197.418 480.5,190C 493.075,181.094 504.742,171.094 515.5,160C 527.96,151.411 539.293,141.411 549.5,130C 555.721,125.112 561.221,119.612 566,113.5C 576.163,105.006 584.496,95.0059 591,83.5C 597.113,77.3874 603.279,71.2208 609.5,65C 613.945,61.9611 618.612,59.2944 623.5,57C 649.419,55.5518 675.086,52.2185 700.5,47C 719.854,44.7609 739.188,42.4275 758.5,40C 762.217,38.8202 765.884,37.4869 769.5,36C 778.312,35.4081 786.979,34.0748 795.5,32C 811.167,25 826.833,18 842.5,11C 855.364,6.31402 868.364,2.48068 881.5,-0.5 Z M 1192.5,26.5 C 1202.12,26.042 1211.45,27.2087 1220.5,30C 1196.63,54.0272 1171.3,76.5272 1144.5,97.5C 1140.35,103.819 1135.35,109.319 1129.5,114C 1119.05,120.791 1109.55,128.625 1101,137.5C 1095.58,147.013 1091.24,157.013 1088,167.5C 1084.76,183.85 1081.43,200.183 1078,216.5C 1076.83,205.758 1075.33,195.091 1073.5,184.5C 1074.61,182.615 1075.44,180.615 1076,178.5C 1076.03,154.853 1083.37,133.853 1098,115.5C 1106.62,108.542 1114.29,100.542 1121,91.5C 1131.92,82.2473 1141.76,72.0806 1150.5,61C 1153.17,59 1155.83,57 1158.5,55C 1164.2,47.6672 1170.54,41.0005 1177.5,35C 1182.62,32.251 1187.62,29.4177 1192.5,26.5 Z M 901.5,193.5 C 908.193,197.441 915.193,200.941 922.5,204C 931.493,207.253 940.659,209.753 950,211.5C 953.835,211.11 957.668,210.777 961.5,210.5C 963.021,223.705 965.521,236.705 969,249.5C 971.422,253.344 974.089,257.01 977,260.5C 977.49,261.793 977.657,263.127 977.5,264.5C 966.479,263.183 955.479,261.683 944.5,260C 932.992,256.175 922.325,250.842 912.5,244C 909.538,241.713 907.371,238.88 906,235.5C 903.885,221.559 902.385,207.559 901.5,193.5 Z M 1026.5,230.5 C 1027.5,230.414 1028.33,230.748 1029,231.5C 1031.52,242.886 1034.35,254.219 1037.5,265.5C 1037.17,266.5 1036.5,267.167 1035.5,267.5C 1031.54,260.58 1028.38,253.247 1026,245.5C 1025.27,240.448 1025.44,235.448 1026.5,230.5 Z M 1098.5,233.5 C 1099.5,233.414 1100.33,233.748 1101,234.5C 1101.67,236.5 1101.67,238.5 1101,240.5C 1099.32,247.585 1097.32,254.585 1095,261.5C 1093.99,262.337 1092.82,262.67 1091.5,262.5C 1091.38,257.768 1091.88,253.102 1093,248.5C 1094.94,243.499 1096.78,238.499 1098.5,233.5 Z M 1081.5,239.5 C 1082.5,239.414 1083.33,239.748 1084,240.5C 1084.61,243.817 1085.11,247.151 1085.5,250.5C 1083.73,257.773 1084.39,264.773 1087.5,271.5C 1087.21,275.124 1085.21,277.124 1081.5,277.5C 1078.46,276.952 1077.12,275.119 1077.5,272C 1079.1,261.197 1080.44,250.363 1081.5,239.5 Z M 1056.5,240.5 C 1060.62,250.227 1064.45,260.227 1068,270.5C 1068.99,276.589 1066.49,278.922 1060.5,277.5C 1058.99,271.114 1057.32,264.78 1055.5,258.5C 1055.37,252.558 1055.7,246.558 1056.5,240.5 Z M 1137.5,271.5 C 1140.9,273.947 1143.07,277.28 1144,281.5C 1145.28,285.097 1145.61,288.764 1145,292.5C 1136.57,316.602 1121.73,335.768 1100.5,350C 1093.31,352.194 1085.98,352.861 1078.5,352C 1077.33,350.167 1075.83,348.667 1074,347.5C 1073.33,345.833 1073.33,344.167 1074,342.5C 1078.65,342.434 1083.48,341.934 1088.5,341C 1089.42,340.626 1090.25,340.126 1091,339.5C 1093.61,332.733 1095.11,325.733 1095.5,318.5C 1109.15,315.75 1119.65,308.417 1127,296.5C 1128.07,292.447 1128.41,288.447 1128,284.5C 1130.7,279.744 1133.87,275.411 1137.5,271.5 Z M 1085.5,282.5 C 1090.84,284.682 1096.34,286.682 1102,288.5C 1105.41,287.378 1108.91,287.211 1112.5,288C 1109.2,290.412 1105.7,290.912 1102,289.5C 1093.7,292.762 1085.7,291.762 1078,286.5C 1077.83,286.167 1077.67,285.833 1077.5,285.5C 1080.45,284.92 1083.11,283.92 1085.5,282.5 Z M 1119.5,290.5 C 1120.38,290.369 1121.04,290.702 1121.5,291.5C 1115.76,302.383 1106.76,308.883 1094.5,311C 1089.5,311.667 1084.5,311.667 1079.5,311C 1078.5,310 1077.5,309 1076.5,308C 1081.05,306.558 1084.71,303.891 1087.5,300C 1091.83,299.228 1095.99,299.728 1100,301.5C 1105.4,300.054 1110.57,297.887 1115.5,295C 1117.04,293.629 1118.37,292.129 1119.5,290.5 Z M 1075.5,296.5 C 1077.18,295.156 1078.85,295.323 1080.5,297C 1079.58,297.374 1078.75,297.874 1078,298.5C 1077.29,297.619 1076.46,296.953 1075.5,296.5 Z M 1063.5,298.5 C 1068.69,305.409 1066.85,309.075 1058,309.5C 1050.12,309.64 1043.29,306.807 1037.5,301C 1040.97,301.236 1044.47,301.736 1048,302.5C 1053.55,302.169 1058.72,300.836 1063.5,298.5 Z M 1064.5,314.5 C 1065.59,314.62 1066.25,315.287 1066.5,316.5C 1064.43,320.716 1064.1,325.049 1065.5,329.5C 1062.57,333.071 1059.4,333.071 1056,329.5C 1054.1,326.771 1052.93,323.771 1052.5,320.5C 1052.83,319.167 1053.17,317.833 1053.5,316.5C 1057.52,317.577 1061.18,316.91 1064.5,314.5 Z M 1075.5,317.5 C 1080.03,320.227 1085.03,321.227 1090.5,320.5C 1089.28,324.083 1088.11,327.749 1087,331.5C 1083.99,335.902 1080.33,336.569 1076,333.5C 1076.51,328.143 1076.34,322.81 1075.5,317.5 Z M 1025.5,803.5 C 1026.04,805.593 1026.88,807.593 1028,809.5C 1030.67,812.833 1033.33,816.167 1036,819.5C 1041.93,822.765 1047.26,826.765 1052,831.5C 1052.99,835.874 1051.66,839.207 1048,841.5C 1040.35,836.512 1034.01,830.179 1029,822.5C 1025.72,820.883 1023.05,818.55 1021,815.5C 1017.64,810.812 1014.3,806.145 1011,801.5C 1010.52,800.552 1010.35,799.552 1010.5,798.5C 1012.93,798.523 1015.26,799.023 1017.5,800C 1018.42,802.841 1019.42,805.674 1020.5,808.5C 1021.18,805.818 1022.85,804.152 1025.5,803.5 Z M 1142.5,804.5 C 1144.53,804.338 1146.53,804.505 1148.5,805C 1148.96,805.414 1149.29,805.914 1149.5,806.5C 1142.47,816.722 1134.8,826.556 1126.5,836C 1122.14,839.013 1117.48,841.18 1112.5,842.5C 1111.99,839.159 1111.83,835.826 1112,832.5C 1114.95,826.054 1119.45,821.054 1125.5,817.5C 1126.92,814.574 1128.92,812.074 1131.5,810C 1135.51,808.663 1139.17,806.83 1142.5,804.5 Z"/></g>
<g><path style="opacity:1" fill="#000000" d="M 884.5,16.5 C 886.76,17.2376 886.927,18.2376 885,19.5C 883.272,18.6477 883.105,17.6477 884.5,16.5 Z"/></g>
<g><path style="opacity:1" fill="#000000" d="M 1361.5,32.5 C 1361.9,31.475 1362.56,31.3083 1363.5,32C 1362.91,32.4643 1362.24,32.631 1361.5,32.5 Z"/></g>
<g><path style="opacity:1" fill="#000000" d="M 956.5,36.5 C 957.833,37.1667 957.833,37.1667 956.5,36.5 Z"/></g>
<g><path style="opacity:1" fill="#000000" d="M 1152.5,37.5 C 1153.29,37.7828 1153.96,38.2828 1154.5,39C 1153.18,39.5281 1152.52,39.0281 1152.5,37.5 Z"/></g>
<g><path style="opacity:1" fill="#000000" d="M 980.5,39.5 C 981.525,39.8966 981.692,40.5632 981,41.5C 980.536,40.9056 980.369,40.2389 980.5,39.5 Z"/></g>
<g><path style="opacity:1" fill="#000000" d="M 1138.5,50.5 C 1139.83,51.1667 1139.83,51.1667 1138.5,50.5 Z"/></g>
<g><path style="opacity:1" fill="#000000" d="M 978.5,64.5 C 979.833,65.1667 979.833,65.1667 978.5,64.5 Z"/></g>
<g><path style="opacity:1" fill="#000000" d="M 871.5,84.5 C 883.553,85.8586 894.553,90.0253 904.5,97C 911.477,103.2 918.477,109.533 925.5,116C 950.028,129.873 974.028,144.54 997.5,160C 1001.48,163.012 1001.31,165.512 997,167.5C 990.957,164.893 985.457,161.393 980.5,157C 974.833,154.667 969.167,152.333 963.5,150C 961.582,147.072 958.915,145.406 955.5,145C 952.113,141.947 948.447,139.28 944.5,137C 934.646,132.178 924.979,126.845 915.5,121C 911.163,117.163 907.163,112.997 903.5,108.5C 895.676,100.918 886.343,95.9179 875.5,93.5C 867.367,96.6636 859.033,97.9969 850.5,97.5C 843.024,102.97 834.691,106.803 825.5,109C 820.797,111.672 816.13,114.338 811.5,117C 789.801,122.346 768.468,128.68 747.5,136C 740.833,137.333 734.167,138.667 727.5,140C 721.81,140.689 716.143,140.522 710.5,139.5C 699.611,141.231 688.611,142.398 677.5,143C 668.123,144.867 659.79,148.534 652.5,154C 649.201,154.754 646.534,156.421 644.5,159C 642.051,159.775 640.384,158.942 639.5,156.5C 642.309,152.523 645.309,148.69 648.5,145C 653.077,142.761 657.411,140.095 661.5,137C 665.979,135.729 670.312,134.062 674.5,132C 692.602,129.634 710.935,127.967 729.5,127C 761.477,120.787 792.81,112.121 823.5,101C 838.766,93.0601 854.766,87.5601 871.5,84.5 Z"/></g>
<g><path style="opacity:1" fill="#000000" d="M 605.5,86.5 C 606.525,86.8966 606.692,87.5632 606,88.5C 605.536,87.9056 605.369,87.2389 605.5,86.5 Z"/></g>
<g><path style="opacity:1" fill="#000000" d="M 1002.5,90.5 C 1002.9,89.475 1003.56,89.3083 1004.5,90C 1003.91,90.4643 1003.24,90.631 1002.5,90.5 Z"/></g>
<g><path style="opacity:1" fill="#000000" d="M 1561.5,105.5 C 1563.34,105.639 1563.67,106.306 1562.5,107.5C 1561.7,107.043 1561.37,106.376 1561.5,105.5 Z"/></g>
<g><path style="opacity:1" fill="#000000" d="M 564.5,106.5 C 567.001,106.511 567.168,107.178 565,108.5C 564.536,107.906 564.369,107.239 564.5,106.5 Z"/></g>
<g><path style="opacity:1" fill="#000000" d="M 542.5,150.5 C 543.833,151.167 543.833,151.167 542.5,150.5 Z"/></g>
<g><path style="opacity:1" fill="#000000" d="M 733.5,219.5 C 734.833,220.167 734.833,220.167 733.5,219.5 Z"/></g>
<g><path style="opacity:1" fill="#000000" d="M 876.5,238.5 C 879.012,239.216 879.012,240.216 876.5,241.5C 875.438,240.575 875.438,239.575 876.5,238.5 Z"/></g>
<g><path style="opacity:1" fill="#000000" d="M 1079.5,330.5 C 1080.25,329.427 1081.25,329.26 1082.5,330C 1081.65,331.728 1080.65,331.895 1079.5,330.5 Z"/></g>
<g><path style="opacity:1" fill="#000000" d="M 997.5,333.5 C 997.897,332.475 998.563,332.308 999.5,333C 998.906,333.464 998.239,333.631 997.5,333.5 Z"/></g>
<g><path style="opacity:1" fill="#000000" d="M 1095.5,342.5 C 1096.29,342.783 1096.96,343.283 1097.5,344C 1096.18,344.528 1095.52,344.028 1095.5,342.5 Z"/></g>
<g><path style="opacity:1" fill="#000000" d="M 317.5,349.5 C 318.833,350.167 318.833,350.167 317.5,349.5 Z"/></g>
<g><path style="opacity:1" fill="#000000" d="M 561.5,459.5 C 562.833,460.167 562.833,460.167 561.5,459.5 Z"/></g>
<g><path style="opacity:1" fill="#000000" d="M 396.5,519.5 C 398.91,519.921 400.743,521.254 402,523.5C 408.72,545.269 420.72,563.602 438,578.5C 442,583.833 446,589.167 450,594.5C 454.711,598.88 459.711,602.88 465,606.5C 465.684,607.784 465.517,608.951 464.5,610C 460.947,610.598 457.614,609.931 454.5,608C 450.29,603.958 446.29,599.792 442.5,595.5C 435.332,584.821 426.832,575.154 417,566.5C 411.346,557.199 405.68,547.866 400,538.5C 398.902,533.207 397.402,528.04 395.5,523C 395.648,521.744 395.982,520.577 396.5,519.5 Z"/></g>
<g><path style="opacity:1" fill="#000000" d="M 404.5,606.5 C 404.657,605.127 404.49,603.793 404,602.5C 399.762,598.687 397.096,594.021 396,588.5C 392.86,584.583 391.194,580.25 391,575.5C 391.689,574.643 392.522,573.977 393.5,573.5C 394.48,574.981 395.647,576.315 397,577.5C 400.196,584.016 403.362,590.516 406.5,597C 409.113,600.382 411.613,603.882 414,607.5C 425.225,618.057 437.058,627.891 449.5,637C 451.878,637.511 454.212,638.178 456.5,639C 459.488,643.695 458.154,645.361 452.5,644C 447.832,642.835 443.499,640.835 439.5,638C 430.162,631.083 421.329,623.583 413,615.5C 411.319,611.321 408.485,608.321 404.5,606.5 Z"/></g>
<g><path style="opacity:1" fill="#000000" d="M 447.5,583.5 C 449.337,583.639 449.67,584.306 448.5,585.5C 447.702,585.043 447.369,584.376 447.5,583.5 Z"/></g>
<g><path style="opacity:1" fill="#000000" d="M 458.5,588.5 C 459.833,589.167 459.833,589.167 458.5,588.5 Z"/></g>
<g><path style="opacity:1" fill="#000000" d="M 404.5,606.5 C 403.833,607.167 403.833,607.167 404.5,606.5 Z"/></g>
<g><path style="opacity:1" fill="#000000" d="M 1780.5,697.5 C 1781.83,698.167 1781.83,698.167 1780.5,697.5 Z"/></g>
<g><path style="opacity:1" fill="#000000" d="M 1114.5,716.5 C 1115.83,717.167 1115.83,717.167 1114.5,716.5 Z"/></g>
<g><path style="opacity:1" fill="#000000" d="M 1046.5,753.5 C 1046.9,752.475 1047.56,752.308 1048.5,753C 1047.91,753.464 1047.24,753.631 1046.5,753.5 Z"/></g>
<g><path style="opacity:1" fill="#000000" d="M 1735.5,752.5 C 1736.83,753.167 1736.83,753.167 1735.5,752.5 Z"/></g>
<g><path style="opacity:1" fill="#000000" d="M 1118.5,803.5 C 1121.86,804.203 1122.19,805.537 1119.5,807.5C 1117.36,806.563 1117.02,805.23 1118.5,803.5 Z"/></g>
<g><path style="opacity:1" fill="#000000" d="M 290.5,810.5 C 291.833,811.167 291.833,811.167 290.5,810.5 Z"/></g>
<g><path style="opacity:1" fill="#000000" d="M 1047.5,812.5 C 1048.53,812.897 1048.69,813.563 1048,814.5C 1047.54,813.906 1047.37,813.239 1047.5,812.5 Z"/></g>
<g><path style="opacity:1" fill="#000000" d="M 1045.5,831.5 C 1047.34,831.639 1047.67,832.306 1046.5,833.5C 1045.7,833.043 1045.37,832.376 1045.5,831.5 Z"/></g>
<g><path style="opacity:1" fill="#000000" d="M 2067.5,1121.5 C 2069.34,1121.64 2069.67,1122.31 2068.5,1123.5C 2067.7,1123.04 2067.37,1122.38 2067.5,1121.5 Z"/></g>
</svg>
